<?xml version="1.0" encoding="UTF-8" standalone="no"?>
<!-- Created with Inkscape (http://www.inkscape.org/) -->

<svg
   xmlns:dc="http://purl.org/dc/elements/1.1/"
   xmlns:cc="http://creativecommons.org/ns#"
   xmlns:rdf="http://www.w3.org/1999/02/22-rdf-syntax-ns#"
   xmlns:svg="http://www.w3.org/2000/svg"
   xmlns="http://www.w3.org/2000/svg"
   xmlns:sodipodi="http://sodipodi.sourceforge.net/DTD/sodipodi-0.dtd"
   xmlns:inkscape="http://www.inkscape.org/namespaces/inkscape"
   version="1.1"
   id="svg3713"
   width="200"
   height="200"
   viewBox="0 0 200 200"
   sodipodi:docname="icon.svg"
   inkscape:version="0.92.4 (5da689c313, 2019-01-14)"
   inkscape:export-filename="C:\Users\rober\Documents\bitmap.png"
   inkscape:export-xdpi="500"
   inkscape:export-ydpi="500">
  <metadata
     id="metadata3719">
    <rdf:RDF>
      <cc:Work
         rdf:about="">
        <dc:format>image/svg+xml</dc:format>
        <dc:type
           rdf:resource="http://purl.org/dc/dcmitype/StillImage" />
        <dc:title></dc:title>
      </cc:Work>
    </rdf:RDF>
  </metadata>
  <defs
     id="defs3717">
    <clipPath
       clipPathUnits="userSpaceOnUse"
       id="clipPath3742">
      <rect
         style="opacity:1;fill:#6a6a6a;fill-opacity:1;fill-rule:nonzero;stroke:#6a6a6a;stroke-width:2.70614171;stroke-linecap:round;stroke-miterlimit:4;stroke-dasharray:none;stroke-dashoffset:0;stroke-opacity:1"
         id="rect3744"
         width="126.42867"
         height="125.63352"
         x="527.18365"
         y="275.12149" />
    </clipPath>
  </defs>
  <sodipodi:namedview
     pagecolor="#ffffff"
     bordercolor="#666666"
     borderopacity="1"
     objecttolerance="10"
     gridtolerance="10"
     guidetolerance="10"
     inkscape:pageopacity="0"
     inkscape:pageshadow="2"
     inkscape:window-width="1843"
     inkscape:window-height="1057"
     id="namedview3715"
     showgrid="false"
     inkscape:zoom="3.5571039"
     inkscape:cx="78.243357"
     inkscape:cy="96.424409"
     inkscape:window-x="69"
     inkscape:window-y="-8"
     inkscape:window-maximized="1"
     inkscape:current-layer="g4685"
     units="px"
     width="200px" />
  <g
     id="g4685"
     transform="matrix(1.3681089,0,0,1.3681089,-620.1802,338.69865)">
    <path
       style="fill:none;stroke:#000000;stroke-width:2.19280791;stroke-linecap:butt;stroke-linejoin:miter;stroke-miterlimit:4;stroke-dasharray:none;stroke-opacity:1"
       d="m 537.16557,-236.97142 c 8.2118,0.0708 14.21574,4.34139 18.73163,10.88421 5.74016,5.78351 5.20459,14.86213 9.08093,21.82696 2.72846,6.08353 4.50949,12.83002 9.56296,17.52098 4.88471,6.46389 13.61171,11.88827 12.82062,20.99765 0.42067,6.26484 -6.38083,14.62086 -12.66278,9.99631 -2.9788,-3.00589 -8.47996,-6.6674 -7.83105,0.39255 -1.14225,9.8978 -8.08878,-2.75671 -11.34702,-5.67431 -7.7667,-6.51032 -19.01085,-11.25083 -21.12368,-22.27739 -1.61547,-3.01637 -0.72644,-7.35994 -3.79229,-9.49175"
       id="path3822"
       inkscape:connector-curvature="0" />
    <path
       style="fill:none;stroke:#000000;stroke-width:2.19280791;stroke-linecap:butt;stroke-linejoin:miter;stroke-miterlimit:4;stroke-dasharray:none;stroke-opacity:1"
       d="m 536.29081,-177.48798 c -8.88132,-1.50515 -9.75115,9.86732 -12.73308,15.7365 -3.97792,9.96057 -8.35274,19.80843 -11.32272,30.13889 1.69377,8.58014 -4.98025,14.15246 -10.71336,19.09551 -4.36293,2.9822 -6.77479,10.73028 -12.95333,7.66185 -8.3692,-1.92204 -16.92202,-3.33022 -25.0863,-5.91758 -1.96805,-4.99198 -0.77257,-11.36038 -1.09035,-16.89204 0.18425,-5.79308 0.4496,-11.65339 1.18266,-17.36781 4.37436,-3.75837 11.93538,-2.77354 14.9908,-8.63409 8.39004,1.48719 3.23296,-9.58719 8.58214,-12.59212 1.9083,-4.32337 11.62478,-6.48278 10.44047,-10.13075 -1.49743,-2.10678 -6.16992,-3.9538 -2.43162,-6.4085 1.23659,-5.65909 11.41355,-1.34469 6.92235,-8.29325 0.28829,-3.90409 7.73738,-6.03241 2.20904,-9.89772 4.56108,-2.50936 9.10227,-5.57737 13.72421,-8.21413 5.83775,-0.48702 3.51288,-3.94145 2.03753,-7.40098 4.27304,-3.69946 -0.67372,-10.19084 6.35959,-11.97527 9.58364,-0.10991 -1.73521,-9.61675 0.90394,-15.46006 1.02894,-4.68255 6.20929,5.47205 9.24688,6.53991 3.20275,-0.0626 9.26838,-9.28952 12.10264,-2.65067 -2.59778,6.04837 3.62036,9.76203 6.86031,13.8589 1.1692,1.25248 2.3471,2.49684 3.51187,3.75346"
       id="path3824"
       inkscape:connector-curvature="0" />
    <path
       style="opacity:1;fill:#000000;fill-opacity:1;fill-rule:nonzero;stroke:#000000;stroke-width:1.18360758;stroke-linecap:round;stroke-miterlimit:4;stroke-dasharray:none;stroke-dashoffset:0;stroke-opacity:1"
       d="m 465.09876,-146.77959 c -0.75215,-5.24977 0.44169,-10.76386 -1.52289,-15.82575 1.93777,-5.85209 0.17877,-13.07824 4.87703,-17.85581 2.25469,-4.58039 0.73236,-12.35605 7.40349,-13.41018 3.93115,-2.09235 2.77746,-7.02483 2.36631,-10.12208 2.87766,-4.04557 13.00801,-1.84544 10.82222,-9.24609 -1.6708,-4.00839 -0.30436,-8.98027 4.5774,-9.11356 4.57175,-1.8308 3.7826,-8.92054 7.88719,-10.55777 4.91931,0.76993 7.92846,-3.12081 10.61587,-6.32817 3.95851,-2.80174 9.6548,-2.40055 13.23305,0.84572 4.85489,2.0142 9.16132,8.92184 3.32312,12.57064 -4.26344,2.70587 -6.20978,7.29309 -5.5114,12.18866 -0.20038,3.90616 -2.1659,8.44119 -6.41378,9.20482 -4.74251,1.30556 -10.09312,4.48834 -9.94593,10.02718 -1.45123,4.89372 -3.48353,10.35024 -8.51058,12.54062 -5.22543,3.24358 3.58995,10.30806 -2.5444,12.78998 -4.83663,2.5568 -8.70206,6.81026 -9.60631,12.33934 -0.89226,5.01058 -5.92669,6.95273 -9.93674,8.98662 -3.15253,1.77896 -7.80594,5.23338 -10.87836,1.43957 z"
       id="path4643"
       inkscape:connector-curvature="0" />
    <path
       style="opacity:1;fill:#000000;fill-opacity:1;fill-rule:nonzero;stroke:#000000;stroke-width:1.52062595;stroke-linecap:round;stroke-miterlimit:4;stroke-dasharray:none;stroke-dashoffset:0;stroke-opacity:1"
       d="m 554.48307,-200.5009 c -5.54456,-0.1617 -6.97167,-11.222 -0.37059,-4.96147 2.42785,0.61743 6.18373,8.1056 0.37059,4.96147 z"
       id="path4645"
       inkscape:connector-curvature="0" />
    <path
       inkscape:connector-curvature="0"
       id="path4647"
       d="m 537.16557,-236.97142 3.06165,5.24854 1.31213,1.31214"
       style="fill:none;stroke:#000000;stroke-width:2.1928079;stroke-linecap:butt;stroke-linejoin:miter;stroke-opacity:1;stroke-miterlimit:4;stroke-dasharray:none" />
    <path
       inkscape:connector-curvature="0"
       id="path4651"
       d="m 531.04228,-107.50744 h 64.29461 v -33.67813 h -62.5451 -4.81116 v 33.67813 z"
       style="fill:none;stroke:#000000;stroke-width:2.1928079;stroke-linecap:butt;stroke-linejoin:miter;stroke-opacity:1;stroke-miterlimit:4;stroke-dasharray:none" />
    <path
       inkscape:connector-curvature="0"
       id="path4653"
       d="m 535.34259,-144.83727 v -11.37184 h 15.30825 v 11.80922"
       style="fill:none;stroke:#000000;stroke-width:2.19280791;stroke-linecap:butt;stroke-linejoin:miter;stroke-miterlimit:4;stroke-dasharray:none;stroke-opacity:1" />
    <path
       inkscape:connector-curvature="0"
       id="path4657"
       d="m 527.54324,-131.12587 h -8.31018 v 11.37184 h 8.74757"
       style="fill:none;stroke:#000000;stroke-width:2.1928079;stroke-linecap:butt;stroke-linejoin:miter;stroke-opacity:1;stroke-miterlimit:4;stroke-dasharray:none" />
    <path
       inkscape:connector-curvature="0"
       id="path4661"
       d="m 531.04228,-125.54929 h 7.8728"
       style="fill:none;stroke:#000000;stroke-width:2.1928079;stroke-linecap:butt;stroke-linejoin:miter;stroke-opacity:1;stroke-miterlimit:4;stroke-dasharray:none" />
    <path
       inkscape:connector-curvature="0"
       id="path4663"
       d="m 535.04879,-129.12829 v 7.43316"
       style="fill:none;stroke:#000000;stroke-width:2.1928079;stroke-linecap:butt;stroke-linejoin:miter;stroke-opacity:1;stroke-miterlimit:4;stroke-dasharray:none" />
    <path
       inkscape:connector-curvature="0"
       id="path4665"
       d="m 546.13998,-140.86929 v 33.4015"
       style="fill:none;stroke:#000000;stroke-width:1.10011685px;stroke-linecap:butt;stroke-linejoin:miter;stroke-opacity:1" />
    <path
       inkscape:connector-curvature="0"
       id="path4667"
       d="m 546.81582,-124.36168 v -16.23685 h 23.96867 23.96866 v 16.23685 16.23684 h -23.96866 -23.96867 z"
       style="opacity:1;fill:#000000;fill-opacity:1;fill-rule:nonzero;stroke:#000000;stroke-width:0.83693701;stroke-linecap:round;stroke-miterlimit:4;stroke-dasharray:none;stroke-dashoffset:0;stroke-opacity:1" />
  </g>
</svg>
